<?xml version="1.0" encoding="utf-8"?>
<!-- Generator: Adobe Illustrator 16.0.0, SVG Export Plug-In . SVG Version: 6.00 Build 0)  -->
<!DOCTYPE svg PUBLIC "-//W3C//DTD SVG 1.1//EN" "http://www.w3.org/Graphics/SVG/1.1/DTD/svg11.dtd">
<svg version="1.1" id="Layer_1" xmlns="http://www.w3.org/2000/svg" xmlns:xlink="http://www.w3.org/1999/xlink" x="0px" y="0px" width="489.539px" height="487.644px" viewBox="0 0 489.539 487.644" enable-background="new 0 0 489.539 487.644" xml:space="preserve">
<g>
	<path fill="#d00d18" d="M457.582,363.604c20.477-35.805,31.957-76.699,31.957-120.137c0-43.437-11.48-84.984-31.957-120.136
		c-0.648-1.301-1.301-1.895-1.891-2.543C413.492,48.586,334.902,0,244.77,0C155.289,0,76.699,48.586,33.852,120.789
		c-0.653,0.648-1.301,1.89-1.895,2.543C11.48,158.484,0,199.378,0,243.468c0,134.871,109.305,244.176,244.18,244.176
		c89.48,0,168.07-48.586,210.917-120.785C456.281,365.5,456.934,364.847,457.582,363.604L457.582,363.604z M24.855,254.948h82.5
		c1.301,31.957,7.692,63.263,17.872,92.677H50.422C35.746,319.457,26.809,288.147,24.855,254.948L24.855,254.948z M50.422,139.25
		h74.805c-10.891,29.414-16.629,60.07-17.875,92.027H24.855C26.809,198.019,35.746,166.711,50.422,139.25L50.422,139.25z
		 M465.277,231.277h-81.195c-1.301-31.957-7.695-62.613-17.875-92.027h73.504C454.387,166.711,463.324,198.019,465.277,231.277
		L465.277,231.277z M360.41,231.277H256.844V139.25h83.738C352.125,168.011,359.168,198.668,360.41,231.277L360.41,231.277z
		 M256.902,115.578V26.097c30.656,24.914,55.629,54.981,72.852,88.832h-72.852V115.578z M233.23,27.398v87.59h-71.609
		C178.902,81.726,203.227,52.316,233.23,27.398L233.23,27.398z M233.23,139.25v92.027H130.965
		c1.305-31.957,8.289-63.266,19.828-92.027H233.23z M130.965,254.948H233.23v92.677h-82.437
		C139.312,318.211,132.27,286.905,130.965,254.948L130.965,254.948z M233.23,371.237v87.586
		c-30.062-24.262-54.328-54.327-71.609-87.586H233.23z M256.902,460.069v-88.832h72.852
		C311.879,405.147,287.559,435.151,256.902,460.069L256.902,460.069z M256.902,347.625v-92.677h103.566
		c-1.301,32.609-8.285,63.914-19.828,92.677H256.902z M384.082,254.948h81.195c-1.895,33.259-10.891,65.216-26.215,92.677h-72.852
		C376.387,318.211,382.777,286.905,384.082,254.948L384.082,254.948z M424.977,115.578h-69.008
		c-14.676-31.957-35.801-62.02-61.367-86.934C347.625,40.836,393.668,72.14,424.977,115.578L424.977,115.578z M197.426,28.05
		c-26.215,25.567-46.633,54.981-62.02,87.586h-70.25C96.465,71.488,143.098,39.531,197.426,28.05L197.426,28.05z M65.156,371.237
		h69.656c15.329,32.609,35.805,62.02,62.02,87.586C143.098,446.694,96.465,414.737,65.156,371.237L65.156,371.237z M294.602,458.175
		c25.563-25.566,46.633-54.98,61.367-86.938h68.414C393.668,414.086,347.625,446.043,294.602,458.175L294.602,458.175z
		 M294.602,458.175"/>
</g>
</svg>
